Thomas de Stoomlocomotief - Gered op Misty Eiland - 2010

[img]http://image.bayimg.com/eaandaado.jpg[/img]
[img]http://image.bayimg.com/eaangaado.jpg[/img]

Categorie: Beeld
Formaat: DVD5
Bron: Retail
Ondertitels: Geen
Genre : Animatie, kinderfilm.

De machines zijn hard aan het werk om de nieuwe Sodor Search and Rescue Center te bouwen. Wanneer Thomas een vriend in nood helpt, wordt hij beloond met een spannende reis naar het vasteland. Onderweg raakt hij verdwaald op zee en vindt zijn weg naar de mysterieuze Misty Island, waar hij kennismaakt met nieuwe vrienden Bash, Dash, en Ferdinand. Samen proberen ze Thomas te helpen om de weg naar huis te vinden. Zal Sir Topham Hatt's zoektocht Thomas ooit vinden?

Video en Audio informatie:
******************************
Video
ID                               : 224 (0xE0)
Format                           : MPEG Video
Format version                   : Version 2
Format profile                   : Main@Main
Format settings, BVOP            : Yes
Format settings, Matrix          : Default
Format settings, GOP             : M=2, N=14
Duration                         : 42mn 54s
Bit rate mode                    : Variable
Bit rate                         : 3 046 Kbps
Nominal bit rate                 : 8 000 Kbps
Width                            : 720 pixels
Height                           : 576 pixels
Display aspect ratio             : 16:9
Frame rate                       : 25.000 fps
Standard                         : PAL
Color space                      : YUV
Chroma subsampling               : 4:2:0
Bit depth                        : 8 bits
Scan type                        : Interlaced
Scan order                       : Top Field First
Bits/(Pixel*Frame)               : 0.294
Stream size                      : 935 MiB (91%)

Audio
ID                               : 128 (0x80)
Format                           : AC-3
Format/Info                      : Audio Coding 3
Mode extension                   : CM (complete main)
Duration                         : 42mn 53s
Bit rate mode                    : Constant
Bit rate                         : 224 Kbps
Channel(s)                       : 2 channels
Channel positions                : Front: L R
Sampling rate                    : 48.0 KHz
Bit depth                        : 16 bits
Video delay                      : -40ms
Stream size                      : 68.7 MiB (7%)

******************************

Black-Sam TBS